<svg width="84" height="24" viewBox="0 0 84 24" fill="none" xmlns="http://www.w3.org/2000/svg">
<g clip-path="url(#clip0_15952_49895)">
<path d="M36.4478 0L24.2988 12V24H36.4478V12H48.5969V0H36.4478Z" fill="#303036"/>
<path d="M12.149 0L0 12V24H12.149V12H24.298V0H12.149Z" fill="#303036"/>
<path fill-rule="evenodd" clip-rule="evenodd" d="M48.5957 12H83.9944V24H48.5957V12ZM53.5428 17.6332V16.7361H55.6291V15.6289H52.4219V20.3346H53.5428V18.7404H55.2191V17.6332H53.5428ZM56.334 15.624H57.455V20.3297H56.334V15.624ZM62.4341 20.3297V15.624H61.3183V18.2383H61.2042L59.3514 15.624H58.2305V20.3297H59.3514V17.7154H59.4656L61.3131 20.3297H62.4341ZM66.0976 19.6018H64.4109L64.1981 20.3297H62.9941L64.4005 15.624H66.1079L67.5143 20.3297H66.3103L66.0976 19.6018ZM65.7914 18.4946L65.3139 16.8543H65.1998L64.7223 18.4946H65.7862H65.7914ZM72.2876 20.3297V15.624H71.1718V18.2383H71.0577L69.205 15.624H68.084V20.3297H69.205V17.7154H69.3191L71.1666 20.3297H72.2876ZM75.1067 15.624C76.482 15.624 77.1463 16.4493 77.1878 17.4181H76.0668C75.9475 16.8799 75.7087 16.7312 75.1067 16.7312C74.4476 16.7312 74.0428 16.8645 74.0428 17.9769C74.0428 19.0892 74.4476 19.2225 75.1067 19.2225C75.7087 19.2225 75.9475 19.079 76.0668 18.5356H77.1878C77.1463 19.5044 76.482 20.3297 75.1067 20.3297C73.5083 20.3297 72.9219 19.1507 72.9219 17.9769C72.9219 16.803 73.5083 15.624 75.1067 15.624ZM78.801 17.4233V16.7312H81.0274V15.624H77.8201V20.3297H81.0274V19.2225H78.801V18.5305H80.607V17.4233H78.801Z" fill="#303036"/>
<path d="M55.4032 3.9668V7.44325H54.5743V5.83378H54.4898L53.7184 7.20846H52.9739L52.2025 5.83378H52.118V7.44325H51.2891V3.9668H52.118L53.3039 6.12159H53.3884L54.5743 3.9668H55.4032Z" fill="#303036"/>
<path d="M57.4868 3.96655C58.5039 3.96655 58.9951 4.57626 59.0258 5.292H58.1968C58.1086 4.89436 57.932 4.78454 57.4868 4.78454C56.9994 4.78454 56.7001 4.883 56.7001 5.70478C56.7001 6.52655 56.9994 6.62502 57.4868 6.62502C57.932 6.62502 58.1086 6.51898 58.1968 6.11756H59.0258C58.9951 6.8333 58.5039 7.443 57.4868 7.443C56.3048 7.443 55.8711 6.572 55.8711 5.70478C55.8711 4.83756 56.3048 3.96655 57.4868 3.96655Z" fill="#303036"/>
<path d="M60.4419 5.56502H61.1135V6.05733H59.5938V5.56502L60.1656 5.15603C60.4726 4.94017 60.6492 4.82277 60.6492 4.64857C60.6492 4.54254 60.63 4.45922 60.369 4.45922C60.108 4.45922 60.0927 4.55011 60.0927 4.67508H59.5938C59.5938 4.28502 59.7703 3.9707 60.3652 3.9707C60.96 3.9707 61.1442 4.28881 61.1442 4.64479C61.1442 4.91745 61.0713 5.09922 60.7643 5.33023L60.4381 5.56502H60.4419Z" fill="#303036"/>
</g>
<defs>
<clipPath id="clip0_15952_49895">
<rect width="84" height="24" fill="white"/>
</clipPath>
</defs>
</svg>
